<mxfile host="65bd71144e">
    <diagram id="rMPREZSkejuEIOKasVXl" name="Page-1">
        <mxGraphModel dx="1062" dy="904" grid="1" gridSize="10" guides="1" tooltips="1" connect="1" arrows="1" fold="1" page="1" pageScale="1" pageWidth="850" pageHeight="1100" math="0" shadow="0">
            <root>
                <mxCell id="0"/>
                <mxCell id="1" parent="0"/>
                <mxCell id="2" value="use" style="edgeStyle=none;html=1;dashed=1;fontSize=12;endArrow=open;endFill=0;" edge="1" parent="1" source="5" target="6">
                    <mxGeometry relative="1" as="geometry"/>
                </mxCell>
                <mxCell id="3" value="use" style="edgeStyle=none;html=1;dashed=1;fontSize=12;endArrow=open;endFill=0;" edge="1" parent="1" source="5" target="10">
                    <mxGeometry relative="1" as="geometry"/>
                </mxCell>
                <mxCell id="4" value="use" style="edgeStyle=none;html=1;dashed=1;fontSize=12;endArrow=open;endFill=0;" edge="1" parent="1" source="9" target="12">
                    <mxGeometry relative="1" as="geometry"/>
                </mxCell>
                <mxCell id="5" value="Managed Extensibility Framework" style="shape=folder;fontStyle=1;spacingTop=0;tabWidth=200;tabHeight=20;tabPosition=left;verticalAlign=bottom;align=left;labelPosition=left;verticalLabelPosition=top;spacingLeft=265;spacing=0;spacingBottom=-16;spacingRight=0;" vertex="1" parent="1">
                    <mxGeometry x="375" y="320" width="260" height="50" as="geometry"/>
                </mxCell>
                <mxCell id="6" value="Language support plugin" style="shape=folder;fontStyle=1;spacingTop=0;tabWidth=160;tabHeight=20;tabPosition=left;verticalAlign=bottom;align=left;labelPosition=left;verticalLabelPosition=top;spacingLeft=265;spacing=0;spacingBottom=-16;spacingRight=0;" vertex="1" parent="1">
                    <mxGeometry x="375" y="100" width="260" height="150" as="geometry"/>
                </mxCell>
                <mxCell id="7" value="File type recognition&#10;Lexical analysis&#10;Syntax highlighting&#10;Formatting&#10;Code insight and code completion&#10;Inspections and quick-fixes&#10;Intention actions" style="rounded=0;align=left;verticalAlign=top;spacing=2;horizontal=1;fontSize=12;whiteSpace=wrap;" vertex="1" parent="1">
                    <mxGeometry x="385" y="130" width="240" height="110" as="geometry"/>
                </mxCell>
                <mxCell id="8" value="use" style="edgeStyle=none;html=1;fontSize=12;dashed=1;endArrow=open;endFill=0;" edge="1" parent="1" source="9" target="5">
                    <mxGeometry relative="1" as="geometry"/>
                </mxCell>
                <mxCell id="9" value="Visual Studio" style="shape=folder;fontStyle=1;spacingTop=0;tabWidth=100;tabHeight=20;tabPosition=left;verticalAlign=bottom;align=left;labelPosition=left;verticalLabelPosition=top;spacingLeft=265;spacing=0;spacingBottom=-16;spacingRight=0;" vertex="1" parent="1">
                    <mxGeometry x="250" y="460" width="260" height="50" as="geometry"/>
                </mxCell>
                <mxCell id="10" value="Language Server" style="shape=folder;fontStyle=1;spacingTop=0;tabWidth=160;tabHeight=20;tabPosition=left;verticalAlign=bottom;align=left;labelPosition=left;verticalLabelPosition=top;spacingLeft=265;spacing=0;spacingBottom=-16;spacingRight=0;" vertex="1" parent="1">
                    <mxGeometry x="100" y="100" width="260" height="150" as="geometry"/>
                </mxCell>
                <mxCell id="11" value="Syntax highlighting&#10;Diagnostics (errors and warnings)&#10;Code completion&#10;Hover information&#10;Signature help&#10;Document symbols&#10;...etc" style="rounded=0;align=left;verticalAlign=top;spacing=2;horizontal=1;fontSize=12;whiteSpace=wrap;" vertex="1" parent="1">
                    <mxGeometry x="110" y="130" width="240" height="110" as="geometry"/>
                </mxCell>
                <mxCell id="12" value="TextMate bundle" style="shape=folder;fontStyle=1;spacingTop=0;tabWidth=160;tabHeight=20;tabPosition=left;verticalAlign=bottom;align=left;labelPosition=left;verticalLabelPosition=top;spacingLeft=265;spacing=0;spacingBottom=-16;spacingRight=0;" vertex="1" parent="1">
                    <mxGeometry x="100" y="300" width="260" height="70" as="geometry"/>
                </mxCell>
                <mxCell id="13" value="Syntax highlighting" style="rounded=0;align=left;verticalAlign=top;spacing=2;horizontal=1;fontSize=12;whiteSpace=wrap;" vertex="1" parent="1">
                    <mxGeometry x="110" y="330" width="240" height="30" as="geometry"/>
                </mxCell>
            </root>
        </mxGraphModel>
    </diagram>
</mxfile>